<?xml version="1.0" encoding="UTF-8"?>
<!-- Created with Inkscape (http://www.inkscape.org/) -->
<svg width="469.29" height="499.99" version="1.1" viewBox="0 0 124.17 132.29" xmlns="http://www.w3.org/2000/svg" xmlns:cc="http://creativecommons.org/ns#" xmlns:dc="http://purl.org/dc/elements/1.1/" xmlns:rdf="http://www.w3.org/1999/02/22-rdf-syntax-ns#" xmlns:xlink="http://www.w3.org/1999/xlink">
 <defs>
  <linearGradient id="linearGradient4591" x1="-144.92" x2="-150.1" y1="7.8178" y2="44.89" gradientUnits="userSpaceOnUse">
   <stop stop-color="#f41c87" offset="0"/>
   <stop stop-color="#5b31c5" offset=".41476"/>
   <stop stop-color="#233add" offset="1"/>
  </linearGradient>
  <linearGradient id="linearGradient4633" x1="-139.75" x2="-149.8" y1="5.9101" y2="46.421" gradientUnits="userSpaceOnUse">
   <stop stop-color="#05bcfe" offset="0"/>
   <stop stop-color="#166af9" offset=".49967"/>
   <stop stop-color="#1862f9" offset="1"/>
  </linearGradient>
  <linearGradient id="linearGradient892" x1="-132.51" x2="-133.9" y1="3.4871" y2="51.981" gradientUnits="userSpaceOnUse">
   <stop stop-color="#ffe600" offset="0"/>
   <stop stop-color="#f24b0d" offset=".60257"/>
   <stop stop-color="#ff0323" offset="1"/>
  </linearGradient>
  <linearGradient id="linearGradient965" x1="-132.51" x2="-133.9" y1="3.4871" y2="51.981" gradientUnits="userSpaceOnUse" xlink:href="#linearGradient892"/>
  <linearGradient id="linearGradient967" x1="-139.75" x2="-149.8" y1="5.9101" y2="46.421" gradientUnits="userSpaceOnUse" xlink:href="#linearGradient4633"/>
  <linearGradient id="linearGradient969" x1="-144.92" x2="-150.1" y1="7.8178" y2="44.89" gradientUnits="userSpaceOnUse" xlink:href="#linearGradient4591"/>
  <linearGradient id="linearGradient971" x1="-140.87" x2="-140.87" y1="54.192" y2="64.3" gradientTransform="matrix(2.0122 0 0 2.0122 487.72 -49.954)" gradientUnits="userSpaceOnUse">
   <stop stop-color="#f41c87" offset="0"/>
   <stop stop-color="#5b31c5" offset=".56429"/>
   <stop stop-color="#1863f9" offset="1"/>
  </linearGradient>
 </defs>
 <metadata>
  <rdf:RDF>
   <cc:Work rdf:about="">
    <dc:format>image/svg+xml</dc:format>
    <dc:type rdf:resource="http://purl.org/dc/dcmitype/StillImage"/>
    <dc:title/>
   </cc:Work>
  </rdf:RDF>
 </metadata>
 <g transform="translate(-89.273 35.202)">
  <g transform="matrix(1.904 0 0 1.904 236.32 2.0341)">
   <path d="m-144.92 7.8178c1.1668-1.9502 1.499-3.7931 6.8733-6.2842 3.0344-1.3304 4.8088-3.1189 6.4813-4.9445 0.51696 3.5355-0.031 6.716-1.4032 9.6217 3.1594-0.95476 6.1707 0.23045 9.154 1.7373 0.51624 0.2901 1.7485 0.75153 7.2163 2.7395-2.1533 1.8056-4.6335 2.9249-7.4167 3.4077 0.63965 2.1115 1.4227 4.2451 2.8732 6.4813l3.3409 4.8777c-2.1093-0.07743-4.1548-0.33814-6.0136-1.1359-0.10678 7.6309 0.714 10.809 1.47 14.299-2.9464-1.5727-5.6252-3.6002-7.684-6.6817-1.8878 3.2118-2.2172 6.6834-2.5391 10.156v4.9445c-1.9124-2.789-3.3425-5.8536-4.009-9.3544-3.8007 4.207-5.9795 9.3263-8.419 14.299 0.28528-4.8539 0.33242-9.7607 2.94-14.098 0.41617-0.73799 0.54148-1.6006 0.33409-2.6059l6.5481-16.17-2.6059-8.8867z" fill="url(#linearGradient965)"/>
   <path d="m-144.92 7.8178 5.1695-1.9077c13.763 8.4621 8.5073 20.944 0.8018 27.495-1.7348 1.5828-8.6964 7.3809-10.857 13.016l-0.29975-1.5311 0.33073-2.5513 2.1261-7.0398 3.1656-3.4018 3.4963-5.0082 2.2679-5.3389z" fill="url(#linearGradient967)"/>
   <path d="m-154.08 23.409c-1.5558-2.3646-3.2072-4.6654-4.2522-7.3705 4.2161-4.1774 8.759-6.5248 13.418-8.221 8.7893 7.5988 7.7794 16.042 3.8743 20.411-7.0008 7.7771-8.9477 13.433-8.7603 18.192-2.6883-4.5182-5.9066-8.4842-2.39-19.466 0.0222 2.1319 9.1651 2.0306 6.0095-6.2137-1.0979-2.3205-3.3868-3.0423-5.8205-2.2459-1.7798 1.2303-1.6016 3.1949-2.0789 4.9137z" fill="url(#linearGradient969)"/>
   <path d="m-149.23 11.314 3.7845-2.0968 0.84842 0.67503 0.0998 1.2462z" fill="#fff"/>
  </g>
 </g>
 <g transform="translate(-89.273 35.202)">
  <g transform="translate(-47.949 16.176)">
   <g transform="matrix(1.904 0 0 1.904 461.04 -44.884)">
    <path d="m-144.92 7.8178c1.1668-1.9502 1.499-3.7931 6.8733-6.2842 3.0344-1.3304 4.8088-3.1189 6.4813-4.9445 0.51696 3.5355-0.031 6.716-1.4032 9.6217 3.1594-0.95476 6.1707 0.23045 9.154 1.7373 0.51624 0.2901 1.7485 0.75153 7.2163 2.7395-2.1533 1.8056-4.6335 2.9249-7.4167 3.4077 0.63965 2.1115 1.4227 4.2451 2.8732 6.4813l3.3409 4.8777c-2.1093-0.07743-4.1548-0.33814-6.0136-1.1359-0.10678 7.6309 0.714 10.809 1.47 14.299-2.9464-1.5727-5.6252-3.6002-7.684-6.6817-1.8878 3.2118-2.2172 6.6834-2.5391 10.156v4.9445c-1.9124-2.789-3.3425-5.8536-4.009-9.3544-3.8007 4.207-5.9795 9.3263-8.419 14.299 0.28528-4.8539 0.33242-9.7607 2.94-14.098 0.41617-0.73799 0.54148-1.6006 0.33409-2.6059l6.5481-16.17-2.6059-8.8867z" fill="url(#linearGradient965)"/>
    <path d="m-144.92 7.8178 5.1695-1.9077c13.763 8.4621 8.5073 20.944 0.8018 27.495-1.7348 1.5828-8.6964 7.3809-10.857 13.016l-0.29975-1.5311 0.33073-2.5513 2.1261-7.0398 3.1656-3.4018 3.4963-5.0082 2.2679-5.3389z" fill="url(#linearGradient967)"/>
    <path d="m-154.08 23.409c-1.5558-2.3646-3.2072-4.6654-4.2522-7.3705 4.2161-4.1774 8.759-6.5248 13.418-8.221 8.7893 7.5988 7.7794 16.042 3.8743 20.411-7.0008 7.7771-8.9477 13.433-8.7603 18.192-2.6883-4.5182-5.9066-8.4842-2.39-19.466 0.0222 2.1319 9.1651 2.0306 6.0095-6.2137-1.0979-2.3205-3.3868-3.0423-5.8205-2.2459-1.7798 1.2303-1.6016 3.1949-2.0789 4.9137z" fill="url(#linearGradient969)"/>
    <path d="m-149.23 11.314 3.7845-2.0968 0.84842 0.67503 0.0998 1.2462z" fill="#fff"/>
   </g>
   <text transform="scale(.97972 1.0207)" x="138.68333" y="79.045387" fill="url(#linearGradient971)" font-family="sans-serif" font-size="28.134px" letter-spacing="0px" stroke-width=".70334" word-spacing="0px" style="line-height:1.25" xml:space="preserve"><tspan x="138.68333" y="79.045387" fill="url(#linearGradient971)" font-family="Bauman" font-size="28.134px" stroke-width=".70334" style="font-feature-settings:normal;font-variant-caps:normal;font-variant-ligatures:normal;font-variant-numeric:normal">Devware</tspan></text>
  </g>
 </g>
</svg>
